<svg width="1320" height="840" viewBox="0 0 1320 840" fill="none" xmlns="http://www.w3.org/2000/svg">
<g filter="url(#filter0_d)">
<rect x="21" y="16" width="1280" height="800" rx="20" fill="white"/>
<path d="M1054.29 258.365L1041 108.686H1187L1173.7 258.342L1113.91 274.99L1054.29 258.365Z" fill="#E44D26"/>
<path d="M1114 262.265L1162.31 248.812L1173.68 120.924H1114V262.265Z" fill="#F16529"/>
<path d="M1114 176.439H1089.81L1088.14 157.64H1114V139.282H1068.17L1068.61 144.207L1073.1 194.796H1114V176.439ZM1114 224.115L1113.92 224.137L1093.56 218.616L1092.26 203.975H1073.92L1076.48 232.799L1113.92 243.238L1114 243.215V224.115Z" fill="#EBEBEB"/>
<path d="M1054.58 68.0093H1063.87V77.2262H1072.37V68.0093H1081.66V95.9206H1072.37V86.5744H1063.87V95.9206H1054.58L1054.58 68.0093ZM1093.87 77.2655H1085.7V68.0093H1111.34V77.2655H1103.16V95.9206H1093.87V77.2655H1093.87ZM1115.41 68.0093H1125.1L1131.06 77.8167L1137.01 68.0093H1146.7V95.9206H1137.45V82.0859L1131.06 92.01H1130.9L1124.5 82.0859V95.9206H1115.41V68.0093H1115.41ZM1151.32 68.0093H1160.61V86.6951H1173.67V95.9206H1151.32V68.0093Z" fill="black"/>
<path d="M1113.94 176.439V194.796H1136.44L1134.32 218.604L1113.94 224.13V243.229L1151.41 232.799L1151.68 229.697L1155.98 181.368L1156.42 176.439H1151.5H1113.94ZM1113.94 139.282V157.64H1158.09L1158.45 153.514L1159.29 144.207L1159.72 139.282H1113.94Z" fill="white"/>
<path d="M985.705 426.822V396.85H1022.11V395.096H985.705V367.753H1024.41V366H984V428.575H1024.75V426.822H985.706H985.705ZM1057.58 383.528L1042.49 403.948L1027.74 383.528H1025.52L1041.46 405.263L1023.99 428.575H1026.03L1042.49 406.577L1059.03 428.575H1061.16L1043.6 405.262L1059.62 383.527H1057.58L1057.58 383.528ZM1066.27 444V415.956H1066.45C1067.47 420.045 1069.49 423.332 1072.5 425.815C1075.51 428.298 1079.35 429.54 1084.01 429.54C1087.02 429.54 1089.69 428.912 1092.02 427.656C1094.35 426.4 1096.3 424.691 1097.86 422.529C1099.43 420.367 1100.62 417.854 1101.44 414.991C1102.27 412.129 1102.68 409.119 1102.68 405.965C1102.68 402.576 1102.25 399.45 1101.4 396.587C1100.55 393.724 1099.31 391.241 1097.69 389.138C1096.07 387.034 1094.11 385.398 1091.81 384.23C1089.51 383.061 1086.91 382.477 1084.01 382.477C1081.79 382.477 1079.73 382.813 1077.83 383.485C1075.92 384.157 1074.23 385.106 1072.75 386.333C1071.27 387.57 1069.97 389.033 1068.92 390.671C1067.84 392.336 1067.01 394.162 1066.45 396.149H1066.27V383.528H1064.57V444H1066.27V444ZM1084.01 427.874C1078.67 427.874 1074.37 425.99 1071.13 422.221C1067.89 418.453 1066.27 413.034 1066.27 405.964C1066.27 403.042 1066.67 400.267 1067.47 397.638C1068.26 395.009 1069.42 392.701 1070.92 390.715C1072.43 388.728 1074.29 387.15 1076.51 385.982C1078.72 384.813 1081.22 384.229 1084.01 384.229C1086.85 384.229 1089.34 384.813 1091.47 385.982C1093.6 387.15 1095.36 388.743 1096.75 390.758C1098.15 392.774 1099.2 395.082 1099.91 397.682C1100.62 400.282 1100.97 403.042 1100.97 405.964C1100.97 408.593 1100.65 411.208 1099.99 413.808C1099.34 416.408 1098.33 418.745 1096.97 420.82C1095.6 422.893 1093.86 424.587 1091.72 425.902C1089.59 427.217 1087.02 427.874 1084.01 427.874V427.874ZM1112.06 428.575V403.072C1112.06 400.618 1112.4 398.222 1113.08 395.885C1113.76 393.548 1114.82 391.489 1116.24 389.707C1117.66 387.925 1119.46 386.522 1121.65 385.5C1123.84 384.477 1126.44 384.054 1129.45 384.229V382.476C1126.84 382.418 1124.55 382.71 1122.59 383.353C1120.63 383.995 1118.94 384.872 1117.52 385.982C1116.09 387.092 1114.96 388.392 1114.11 389.882C1113.25 391.37 1112.62 392.98 1112.23 394.658H1112.06V383.528H1110.35V428.576H1112.06V428.575ZM1131.58 406.402H1168.24C1168.36 403.305 1168.06 400.326 1167.35 397.463C1166.64 394.6 1165.5 392.058 1163.94 389.838C1162.38 387.618 1160.36 385.836 1157.89 384.492C1155.41 383.148 1152.47 382.476 1149.06 382.476C1146.62 382.476 1144.23 383.002 1141.9 384.054C1139.57 385.106 1137.52 386.639 1135.76 388.655C1134 390.671 1132.58 393.139 1131.5 396.061C1130.42 398.982 1129.88 402.312 1129.88 406.052C1129.88 409.382 1130.25 412.493 1130.99 415.385C1131.73 418.277 1132.86 420.79 1134.4 422.923C1135.93 425.055 1137.91 426.706 1140.32 427.874C1142.74 429.043 1145.65 429.598 1149.06 429.539C1154.06 429.539 1158.27 428.093 1161.68 425.201C1165.09 422.309 1167.11 418.234 1167.73 412.975H1166.03C1165.29 417.942 1163.4 421.666 1160.36 424.149C1157.32 426.633 1153.49 427.874 1148.89 427.874C1145.76 427.874 1143.12 427.319 1140.96 426.209C1138.8 425.099 1137.04 423.58 1135.67 421.652C1134.31 419.723 1133.3 417.459 1132.65 414.859C1131.99 412.26 1131.64 409.44 1131.58 406.402ZM1166.54 404.649H1131.58C1131.75 401.494 1132.32 398.661 1133.29 396.148C1134.25 393.636 1135.52 391.489 1137.08 389.707C1138.64 387.925 1140.46 386.567 1142.54 385.631C1144.61 384.697 1146.84 384.229 1149.23 384.229C1152.07 384.229 1154.57 384.77 1156.73 385.851C1158.89 386.932 1160.7 388.407 1162.15 390.277C1163.6 392.146 1164.69 394.323 1165.43 396.805C1166.17 399.289 1166.54 401.904 1166.54 404.649ZM1203.63 396.85H1205.33C1205.33 391.825 1203.91 388.173 1201.07 385.894C1198.23 383.616 1194.36 382.476 1189.47 382.476C1186.75 382.476 1184.44 382.827 1182.57 383.528C1180.69 384.229 1179.16 385.135 1177.96 386.245C1176.77 387.355 1175.92 388.582 1175.41 389.926C1174.89 391.27 1174.64 392.555 1174.64 393.782C1174.64 396.236 1175.06 398.193 1175.92 399.654C1176.77 401.115 1178.11 402.254 1179.92 403.072C1181.17 403.656 1182.6 404.182 1184.19 404.65C1185.78 405.117 1187.63 405.614 1189.73 406.139C1191.6 406.607 1193.45 407.074 1195.27 407.541C1197.09 408.009 1198.7 408.637 1200.09 409.426C1201.48 410.215 1202.62 411.222 1203.5 412.45C1204.38 413.676 1204.82 415.283 1204.82 417.27C1204.82 419.198 1204.38 420.834 1203.5 422.177C1202.63 423.514 1201.48 424.637 1200.13 425.464C1198.77 426.311 1197.25 426.925 1195.57 427.304C1193.89 427.684 1192.26 427.874 1190.67 427.874C1185.49 427.874 1181.53 426.691 1178.77 424.325C1176.02 421.958 1174.64 418.234 1174.64 413.15H1172.93C1172.93 418.818 1174.43 422.966 1177.41 425.596C1180.39 428.225 1184.81 429.539 1190.67 429.539C1192.54 429.539 1194.43 429.32 1196.34 428.882C1198.24 428.444 1199.95 427.728 1201.45 426.735C1202.95 425.755 1204.2 424.436 1205.12 422.879C1206.06 421.301 1206.53 419.373 1206.53 417.094C1206.53 414.932 1206.11 413.18 1205.29 411.836C1204.46 410.492 1203.39 409.382 1202.05 408.506C1200.71 407.629 1199.21 406.943 1197.53 406.446C1195.84 405.947 1194.15 405.465 1192.46 405C1190.37 404.437 1188.28 403.882 1186.19 403.335C1184.4 402.867 1182.74 402.312 1181.2 401.67C1179.73 401.027 1178.55 400.107 1177.67 398.909C1176.78 397.711 1176.34 396.002 1176.34 393.782C1176.34 393.373 1176.46 392.643 1176.68 391.591C1176.91 390.539 1177.45 389.473 1178.3 388.392C1179.16 387.311 1180.46 386.347 1182.23 385.5C1183.99 384.653 1186.4 384.229 1189.47 384.229C1191.58 384.229 1193.49 384.463 1195.23 384.93C1196.96 385.398 1198.45 386.143 1199.7 387.165C1200.95 388.188 1201.92 389.488 1202.6 391.065C1203.29 392.643 1203.63 394.571 1203.63 396.85V396.85ZM1243.1 396.85H1244.81C1244.81 391.825 1243.39 388.173 1240.54 385.894C1237.7 383.616 1233.84 382.476 1228.95 382.476C1226.22 382.476 1223.92 382.827 1222.04 383.528C1220.17 384.229 1218.63 385.135 1217.44 386.245C1216.24 387.355 1215.39 388.582 1214.88 389.926C1214.37 391.27 1214.11 392.555 1214.11 393.782C1214.11 396.236 1214.54 398.193 1215.39 399.654C1216.24 401.115 1217.58 402.254 1219.4 403.072C1220.65 403.656 1222.07 404.182 1223.66 404.65C1225.25 405.117 1227.1 405.614 1229.2 406.139C1231.08 406.607 1232.93 407.074 1234.75 407.541C1236.56 408.009 1238.17 408.637 1239.56 409.426C1240.96 410.215 1242.09 411.222 1242.97 412.45C1243.85 413.676 1244.29 415.283 1244.29 417.27C1244.29 419.198 1243.85 420.834 1242.97 422.177C1242.1 423.514 1240.95 424.637 1239.61 425.464C1238.24 426.311 1236.72 426.925 1235.04 427.304C1233.37 427.684 1231.73 427.874 1230.14 427.874C1224.97 427.874 1221.01 426.691 1218.25 424.325C1215.49 421.958 1214.11 418.234 1214.11 413.15H1212.41C1212.41 418.818 1213.9 422.966 1216.88 425.596C1219.87 428.225 1224.29 429.539 1230.14 429.539C1232.02 429.539 1233.91 429.32 1235.81 428.882C1237.72 428.444 1239.42 427.728 1240.93 426.735C1242.42 425.755 1243.67 424.436 1244.59 422.879C1245.53 421.301 1246 419.373 1246 417.094C1246 414.932 1245.59 413.18 1244.76 411.836C1243.94 410.492 1242.86 409.382 1241.52 408.506C1240.19 407.629 1238.68 406.943 1237.01 406.446C1235.32 405.947 1233.63 405.465 1231.93 405C1229.85 404.437 1227.76 403.882 1225.67 403.335C1223.88 402.867 1222.21 402.312 1220.68 401.67C1219.2 401.027 1218.02 400.107 1217.14 398.909C1216.26 397.711 1215.82 396.002 1215.82 393.782C1215.82 393.373 1215.93 392.643 1216.16 391.591C1216.39 390.539 1216.93 389.473 1217.78 388.392C1218.63 387.311 1219.94 386.347 1221.7 385.5C1223.46 384.653 1225.88 384.229 1228.95 384.229C1231.05 384.229 1232.97 384.463 1234.7 384.93C1236.44 385.398 1237.93 386.143 1239.18 387.165C1240.43 388.188 1241.4 389.488 1242.08 391.065C1242.76 392.643 1243.1 394.571 1243.1 396.85H1243.1Z" fill="#222222"/>
<path fill-rule="evenodd" clip-rule="evenodd" d="M824.047 385.356C823.734 385.419 823.42 386.115 823.42 386.495C823.358 389.029 823.295 395.742 823.295 400.301C823.295 400.428 823.483 400.682 823.671 400.682C824.612 400.745 826.87 400.808 828.815 400.808C831.512 400.808 833.08 400.428 833.959 400.049C836.217 398.908 837.283 396.438 837.283 393.714C837.283 387.572 833.018 385.229 826.682 385.229C826.243 385.166 824.989 385.166 824.047 385.356V385.356ZM840.232 413.665C840.232 407.395 835.652 403.911 827.372 403.911C826.996 403.911 824.361 403.848 823.734 403.974C823.545 404.038 823.295 404.165 823.295 404.355C823.295 408.851 823.232 416.008 823.42 418.795C823.545 419.998 824.424 421.708 825.491 422.214C826.619 422.848 829.191 422.974 830.948 422.974C835.903 422.974 840.232 420.188 840.232 413.665V413.665ZM811.251 381.873C811.878 381.873 813.76 382.062 818.59 382.062C823.17 382.062 826.808 381.936 831.261 381.936C836.718 381.936 844.246 383.899 844.246 392.132C844.246 396.185 841.423 399.415 837.722 400.999C837.535 401.062 837.535 401.188 837.722 401.251C842.991 402.582 847.634 405.875 847.634 412.081C847.634 418.161 843.87 422.024 838.412 424.431C835.088 425.887 830.948 426.394 826.745 426.394C823.545 426.394 814.952 426.014 810.185 426.141C809.683 425.95 810.624 423.671 811.062 423.291C812.192 423.227 813.07 423.164 814.262 422.784C815.956 422.341 816.144 421.834 816.394 419.238C816.52 417.021 816.52 409.167 816.52 403.595C816.52 395.932 816.583 390.739 816.52 388.206C816.458 386.243 815.768 385.609 814.388 385.229C813.321 385.039 811.565 384.785 810.122 384.596C809.808 384.279 810.874 382.125 811.251 381.873ZM775.056 421.264C776.562 422.467 779.51 422.973 782.145 422.973C785.532 422.973 788.92 422.341 792.182 419.363C795.506 416.325 797.827 411.638 797.827 404.165C797.827 397.008 795.13 391.181 789.609 387.762C786.473 385.798 782.458 384.976 777.816 384.976C776.437 384.976 775.119 385.039 774.304 385.419C774.115 385.546 773.677 386.115 773.677 386.432C773.551 387.699 773.551 397.451 773.551 403.151C773.551 409.041 773.551 417.274 773.677 418.224C773.677 419.175 774.115 420.631 775.057 421.264H775.056ZM760.817 381.872C762.009 381.872 766.588 382.062 768.783 382.062C772.736 382.062 775.558 381.873 783.023 381.873C789.295 381.873 794.565 383.582 798.329 386.812C802.907 390.802 805.292 396.312 805.292 403.025C805.292 412.588 800.963 418.098 796.635 421.264C792.307 424.494 786.661 426.394 778.632 426.394C774.367 426.394 767.027 426.267 760.942 426.204H760.88C760.566 425.634 761.381 423.417 761.883 423.354C763.514 423.164 763.954 423.1 764.769 422.785C766.086 422.277 766.337 421.581 766.526 419.238C766.713 414.868 766.651 409.611 766.651 403.658C766.651 399.415 766.713 391.118 766.588 388.458C766.4 386.242 765.459 385.672 763.577 385.292C762.636 385.102 761.381 384.848 759.626 384.659C759.374 384.215 760.503 382.252 760.817 381.873V381.872Z" fill="#8E714E"/>
<path fill-rule="evenodd" clip-rule="evenodd" d="M684.915 423.734C683.347 423.544 682.218 423.291 680.838 422.658C680.65 422.531 680.336 421.898 680.336 421.644C680.211 419.427 680.211 413.094 680.211 408.852C680.211 405.431 679.646 402.455 678.203 400.365C676.509 397.958 674.064 396.565 670.927 396.565C668.167 396.565 664.466 398.465 661.392 401.125C661.329 401.188 660.827 401.632 660.89 400.935C660.89 400.238 661.016 398.845 661.078 397.895C661.142 397.008 660.639 396.565 660.639 396.565C658.632 397.578 652.987 398.908 650.916 399.098C649.411 399.416 649.034 400.872 650.603 401.378H650.666C652.358 401.885 653.488 402.455 654.366 403.025C654.993 403.532 654.931 404.228 654.931 404.799C654.993 409.548 654.993 416.831 654.806 420.821C654.743 422.404 654.304 422.974 653.174 423.227L653.3 423.164C652.422 423.354 651.732 423.544 650.665 423.671C650.289 424.051 650.289 426.077 650.665 426.521C651.355 426.521 654.993 426.331 658.005 426.331C662.145 426.331 664.278 426.521 665.344 426.521C665.783 426.014 665.909 424.114 665.658 423.671C664.466 423.608 663.587 423.481 662.772 423.227C661.643 422.973 661.329 422.404 661.266 421.074C661.142 417.717 661.142 410.625 661.142 405.812C661.142 404.482 661.517 403.848 661.893 403.468C663.336 402.202 665.658 401.315 667.728 401.315C669.735 401.315 671.052 401.949 672.056 402.772C673.436 403.911 673.875 405.558 674.063 406.761C674.376 409.485 674.251 414.868 674.251 419.554C674.251 422.087 674.063 422.721 673.123 423.037C672.683 423.227 671.554 423.481 670.237 423.607C669.797 424.051 669.923 426.014 670.237 426.458C672.056 426.458 674.189 426.268 677.325 426.268C681.214 426.268 683.724 426.458 684.728 426.458C685.04 426.077 685.166 424.241 684.915 423.734V423.734ZM702.291 399.543C698.967 399.543 696.897 402.139 696.897 406.191C696.897 410.308 698.716 415.058 703.859 415.058C704.737 415.058 706.369 414.678 707.121 413.791C708.313 412.652 709.129 410.371 709.129 407.965C709.129 402.708 706.556 399.542 702.291 399.542V399.543ZM701.852 427.534C700.598 427.534 699.719 427.914 699.155 428.231C696.52 429.94 695.328 431.587 695.328 433.551C695.328 435.387 696.018 436.843 697.524 438.11C699.343 439.693 701.852 440.454 705.051 440.454C711.449 440.454 714.272 436.97 714.272 433.551C714.272 431.144 713.08 429.56 710.634 428.674C708.878 427.914 705.679 427.534 701.852 427.534V427.534ZM702.291 444C698.465 444 695.704 443.177 693.321 441.34C691 439.567 689.996 436.907 689.996 435.07C689.996 434.564 690.122 433.17 691.251 431.904C691.94 431.144 693.447 429.687 697.022 427.217C697.147 427.154 697.21 427.091 697.21 426.963C697.21 426.837 697.084 426.71 696.959 426.648C694.011 425.508 693.133 423.671 692.881 422.658V422.531C692.819 422.151 692.694 421.771 693.258 421.391C693.698 421.074 694.325 420.694 695.014 420.252C696.081 419.618 697.21 418.921 697.9 418.351C698.026 418.224 698.026 418.098 698.026 417.971C698.026 417.844 697.9 417.717 697.774 417.655C693.384 416.198 691.189 412.904 691.189 407.965C691.189 404.735 692.631 401.822 695.203 399.985C696.959 398.592 701.35 396.882 704.236 396.882H704.424C707.372 396.945 709.003 397.578 711.324 398.402C712.578 398.845 713.771 399.035 715.402 399.035C717.848 399.035 718.914 398.275 719.792 397.389C719.855 397.515 719.981 397.832 720.043 398.655C720.106 399.479 719.855 400.682 719.228 401.568C718.726 402.265 717.597 402.772 716.468 402.772H716.154C715.025 402.645 714.522 402.518 714.522 402.518L714.272 402.645C714.21 402.772 714.272 402.898 714.335 403.089L714.398 403.215C714.523 403.785 714.774 405.495 714.774 405.939C714.774 411.132 712.704 413.411 710.509 415.121C708.375 416.704 705.93 417.717 703.169 417.971C703.107 417.971 702.857 417.971 702.291 418.034C701.978 418.034 701.539 418.098 701.475 418.098H701.413C700.911 418.224 699.657 418.858 699.657 419.934C699.657 420.884 700.221 422.024 702.918 422.214C703.483 422.278 704.047 422.278 704.675 422.341C708.25 422.594 712.704 422.911 714.774 423.608C717.66 424.684 719.479 427.281 719.479 430.384C719.479 435.071 716.155 439.441 710.634 442.163C707.937 443.367 705.239 444 702.291 444V444ZM738.046 399.859C736.729 399.859 735.537 400.175 734.659 400.808C732.213 402.328 730.958 405.368 730.958 409.801C730.958 418.098 735.098 423.925 740.995 423.925C742.751 423.925 744.131 423.417 745.323 422.404C747.142 420.884 748.083 417.844 748.083 413.601C748.083 405.368 744.005 399.858 738.047 399.858L738.046 399.859ZM739.176 426.964C728.512 426.964 724.685 419.048 724.685 411.638C724.685 406.445 726.755 402.455 730.895 399.605C733.844 397.768 737.357 396.756 740.493 396.756C748.647 396.756 754.356 402.645 754.356 411.132C754.356 416.894 752.098 421.454 747.769 424.241C745.699 425.634 742.124 426.964 739.175 426.964H739.176V426.964ZM627.393 399.858C626.076 399.858 624.884 400.175 624.005 400.808C621.56 402.328 620.305 405.368 620.305 409.801C620.305 418.098 624.444 423.925 630.341 423.925C632.098 423.925 633.478 423.417 634.67 422.404C636.488 420.884 637.43 417.844 637.43 413.601C637.43 405.368 633.415 399.858 627.393 399.858ZM628.522 426.964C617.858 426.964 614.032 419.048 614.032 411.638C614.032 406.445 616.102 402.455 620.241 399.605C623.19 397.768 626.703 396.756 629.84 396.756C637.995 396.756 643.702 402.645 643.702 411.132C643.702 416.894 641.444 421.454 637.116 424.241C635.108 425.634 631.533 426.964 628.522 426.964ZM556.823 426.331C556.698 426.141 556.572 425.571 556.635 424.874C556.635 424.367 556.761 424.051 556.823 423.925C558.141 423.734 558.831 423.544 559.583 423.354C560.838 423.037 561.34 422.341 561.402 420.758C561.591 416.958 561.591 409.738 561.528 404.735V404.608C561.528 404.038 561.528 403.341 560.838 402.835C559.834 402.202 558.642 401.632 557.074 401.188C556.51 400.999 556.133 400.682 556.196 400.302C556.196 399.922 556.572 399.479 557.388 399.352C559.458 399.162 564.852 397.832 566.985 396.882C567.111 397.008 567.299 397.389 567.299 397.895L567.236 398.591C567.173 399.289 567.111 400.112 567.111 400.935C567.111 401.188 567.362 401.378 567.612 401.378C567.738 401.378 567.864 401.315 567.989 401.251C572.004 398.085 575.642 396.945 577.523 396.945C580.598 396.945 582.982 398.402 584.801 401.441C584.926 401.632 585.051 401.695 585.24 401.695C585.365 401.695 585.552 401.632 585.616 401.505C589.317 398.655 593.018 396.945 595.464 396.945C601.297 396.945 604.748 401.315 604.748 408.725C604.748 410.815 604.748 413.538 604.685 416.008C604.685 418.224 604.623 420.251 604.623 421.708C604.623 422.024 605.061 423.037 605.751 423.227C606.629 423.671 607.822 423.861 609.39 424.114H609.452C609.578 424.557 609.327 426.204 609.077 426.521C608.7 426.521 608.135 426.521 607.508 426.458C605.92 426.374 604.331 426.332 602.741 426.331C598.852 426.331 596.844 426.394 594.899 426.521C594.775 426.014 594.711 424.494 594.899 424.114C596.029 423.925 596.593 423.734 597.284 423.544C598.538 423.164 598.852 422.594 598.915 420.948C598.915 419.744 599.165 409.485 598.788 407.015C598.413 404.482 596.53 401.505 592.39 401.505C590.822 401.505 588.376 402.139 585.992 403.974C585.867 404.101 585.741 404.418 585.741 404.608V404.672C585.992 406.001 585.992 407.522 585.992 409.865V413.981C585.992 416.831 585.929 419.491 585.992 421.517C585.992 422.911 586.808 423.227 587.498 423.481C587.874 423.544 588.125 423.608 588.439 423.671C589.003 423.798 589.568 423.925 590.446 424.114C590.572 424.368 590.572 425.191 590.383 425.887C590.32 426.268 590.194 426.457 590.132 426.521C587.999 426.458 585.804 426.394 582.605 426.394C581.664 426.394 580.033 426.458 578.653 426.458C577.523 426.458 576.457 426.521 575.831 426.521C575.767 426.394 575.642 425.951 575.642 425.254C575.642 424.684 575.767 424.241 575.893 424.114C576.206 424.051 576.457 423.988 576.771 423.988C577.523 423.861 578.151 423.734 578.778 423.608C579.845 423.291 580.221 422.721 580.284 421.328C580.472 418.161 580.66 409.105 580.221 406.825C579.469 403.152 577.399 401.315 574.073 401.315C572.129 401.315 569.682 402.265 567.676 403.786C567.361 404.038 567.111 404.671 567.111 405.241V408.978C567.111 413.538 567.111 419.238 567.173 421.708C567.236 422.467 567.487 423.354 568.93 423.671C569.244 423.734 569.745 423.861 570.373 423.925L571.501 424.114C571.628 424.494 571.564 426.014 571.314 426.521C570.686 426.521 569.934 426.458 569.055 426.458C567.738 426.394 566.044 426.331 564.163 426.331C561.967 426.331 560.399 426.394 559.144 426.458C558.266 426.331 557.576 426.331 556.823 426.331V426.331Z" fill="#442D22"/>
<path fill-rule="evenodd" clip-rule="evenodd" d="M523.827 441.53L521.256 440.642C521.256 440.642 521.57 427.407 516.865 426.457C513.729 422.783 517.368 270.663 528.658 425.95C528.658 425.95 524.769 427.913 524.079 431.27C523.326 434.563 523.827 441.53 523.827 441.53V441.53Z" fill="white"/>
<path fill-rule="evenodd" clip-rule="evenodd" d="M523.827 441.53L521.256 440.642C521.256 440.642 521.57 427.407 516.865 426.457C513.729 422.783 517.368 270.663 528.658 425.95C528.658 425.95 524.769 427.913 524.079 431.27C523.326 434.563 523.827 441.53 523.827 441.53V441.53Z" fill="#A6A385"/>
<path fill-rule="evenodd" clip-rule="evenodd" d="M525.208 428.737C525.208 428.737 547.728 413.79 542.458 382.694C537.378 360.086 525.396 352.677 524.079 349.826C522.636 347.8 521.256 344.254 521.256 344.254L522.197 407.14C522.197 407.204 520.253 426.393 525.209 428.737" fill="white"/>
<path fill-rule="evenodd" clip-rule="evenodd" d="M525.208 428.737C525.208 428.737 547.728 413.79 542.458 382.694C537.378 360.086 525.396 352.677 524.079 349.826C522.636 347.8 521.256 344.254 521.256 344.254L522.197 407.14C522.197 407.204 520.253 426.393 525.209 428.737" fill="#499D4A"/>
<path fill-rule="evenodd" clip-rule="evenodd" d="M519.939 429.56C519.939 429.56 498.799 414.993 500.054 389.345C501.245 363.696 516.175 351.093 519.06 348.814C520.943 346.787 521.005 346.027 521.131 344C522.448 346.85 522.197 386.622 522.385 391.308C522.949 409.357 521.382 426.141 519.939 429.56Z" fill="white"/>
<path fill-rule="evenodd" clip-rule="evenodd" d="M519.939 429.56C519.939 429.56 498.799 414.993 500.054 389.345C501.245 363.696 516.175 351.093 519.06 348.814C520.943 346.787 521.005 346.027 521.131 344C522.448 346.85 522.197 386.622 522.385 391.308C522.949 409.357 521.382 426.141 519.939 429.56Z" fill="#58AA50"/>
<path d="M226.294 502C225.319 502 224.409 501.741 223.563 501.286L214.914 496.153C213.613 495.438 214.263 495.179 214.654 495.049C216.409 494.464 216.735 494.334 218.556 493.295C218.751 493.165 219.011 493.23 219.206 493.36L225.84 497.323C226.1 497.453 226.425 497.453 226.62 497.323L252.568 482.315C252.828 482.185 252.959 481.925 252.959 481.6V451.65C252.959 451.325 252.828 451.066 252.568 450.935L226.62 435.993C226.36 435.862 226.034 435.862 225.84 435.993L199.891 450.935C199.631 451.065 199.5 451.39 199.5 451.65V481.6C199.5 481.86 199.631 482.185 199.891 482.315L206.98 486.408C210.817 488.357 213.223 486.083 213.223 483.809V454.248C213.223 453.859 213.548 453.469 214.003 453.469H217.32C217.71 453.469 218.1 453.794 218.1 454.248V483.809C218.1 488.941 215.304 491.93 210.426 491.93C208.931 491.93 207.76 491.93 204.443 490.306L197.615 486.408C195.924 485.434 194.883 483.614 194.883 481.665V451.715C194.883 449.766 195.924 447.946 197.615 446.972L223.563 431.964C225.189 431.055 227.401 431.055 229.026 431.964L254.974 446.972C256.665 447.946 257.706 449.766 257.706 451.715V481.665C257.706 483.614 256.665 485.434 254.974 486.408L229.026 501.416C228.18 501.806 227.205 502 226.295 502H226.294ZM234.294 481.405C222.913 481.405 220.572 476.208 220.572 471.79C220.572 471.4 220.897 471.011 221.352 471.011H224.734C225.124 471.011 225.449 471.27 225.449 471.66C225.97 475.103 227.465 476.793 234.359 476.793C239.822 476.793 242.163 475.558 242.163 472.635C242.163 470.945 241.512 469.711 232.993 468.867C225.904 468.152 221.482 466.593 221.482 460.941C221.482 455.678 225.905 452.559 233.318 452.559C241.642 452.559 245.74 455.418 246.26 461.654C246.26 461.85 246.195 462.045 246.065 462.24C245.935 462.369 245.74 462.499 245.545 462.499H242.163C241.838 462.499 241.512 462.24 241.448 461.915C240.667 458.342 238.651 457.172 233.318 457.172C227.335 457.172 226.62 459.251 226.62 460.81C226.62 462.694 227.465 463.279 235.529 464.318C243.529 465.358 247.301 466.852 247.301 472.439C247.236 478.157 242.553 481.405 234.294 481.405Z" fill="#539E43"/>
<path d="M145.782 384.862C145.782 383.693 145.132 382.588 144.092 382.003L116.517 366.151C116.061 365.891 115.541 365.761 115.021 365.696H114.761C114.241 365.696 113.721 365.891 113.265 366.151L85.6909 382.003C84.6499 382.588 84 383.692 84 384.862L84.0653 427.481C84.0653 428.066 84.3905 428.65 84.9104 428.911C85.4309 429.235 86.0809 429.235 86.5366 428.911L102.925 419.555C103.966 418.97 104.616 417.866 104.616 416.697V396.751C104.616 395.582 105.266 394.477 106.307 393.893L113.265 389.864C113.786 389.539 114.371 389.409 114.956 389.409C115.541 389.409 116.127 389.539 116.582 389.864L123.541 393.893C124.582 394.477 125.232 395.581 125.232 396.751V416.697C125.232 417.866 125.882 418.97 126.923 419.555L143.311 428.911C143.832 429.235 144.481 429.235 145.002 428.911C145.522 428.65 145.848 428.066 145.848 427.481L145.782 384.862ZM278.322 326.195C277.802 325.935 277.151 325.935 276.696 326.195C276.176 326.52 275.85 327.04 275.85 327.624V369.854C275.85 370.244 275.656 370.633 275.265 370.894C274.875 371.088 274.485 371.088 274.095 370.894L267.201 366.931C266.696 366.643 266.124 366.492 265.543 366.492C264.961 366.492 264.39 366.643 263.884 366.931L236.31 382.848C235.269 383.432 234.619 384.537 234.619 385.706V417.476C234.619 418.645 235.269 419.75 236.31 420.335L263.884 436.252C264.39 436.539 264.961 436.691 265.543 436.691C266.124 436.691 266.696 436.539 267.201 436.252L294.776 420.335C295.816 419.75 296.467 418.645 296.467 417.476V338.279C296.467 337.045 295.816 335.941 294.776 335.356L278.322 326.195H278.322ZM275.786 407.016C275.786 407.341 275.656 407.601 275.395 407.731L265.966 413.188C265.834 413.252 265.689 413.285 265.543 413.285C265.396 413.285 265.252 413.252 265.12 413.188L255.69 407.731C255.43 407.601 255.3 407.276 255.3 407.016V396.101C255.3 395.776 255.43 395.517 255.69 395.387L265.12 389.929C265.252 389.865 265.396 389.831 265.543 389.831C265.689 389.831 265.834 389.865 265.966 389.929L275.395 395.387C275.656 395.516 275.786 395.842 275.786 396.101V407.016ZM370.085 395.842C371.126 395.257 371.711 394.152 371.711 392.983V385.252C371.711 384.082 371.061 382.978 370.085 382.393L342.706 366.541C342.2 366.254 341.629 366.103 341.047 366.103C340.466 366.103 339.894 366.254 339.389 366.541L311.815 382.458C310.774 383.042 310.124 384.147 310.124 385.317V417.086C310.124 418.255 310.774 419.36 311.815 419.945L339.194 435.537C340.235 436.122 341.47 436.122 342.446 435.537L359.029 426.312C359.549 426.052 359.875 425.467 359.875 424.883C359.875 424.298 359.549 423.714 359.029 423.453L331.325 407.536C330.805 407.212 330.479 406.692 330.479 406.107V396.167C330.479 395.582 330.805 394.998 331.325 394.737L339.974 389.8C340.228 389.641 340.521 389.556 340.82 389.556C341.119 389.556 341.412 389.641 341.665 389.8L350.314 394.737C350.835 395.062 351.16 395.582 351.16 396.167V403.963C351.16 404.548 351.485 405.132 352.005 405.392C352.526 405.717 353.176 405.717 353.696 405.392L370.085 395.842V395.842Z" fill="#333333"/>
<path d="M340.625 394.347C340.721 394.284 340.834 394.25 340.95 394.25C341.065 394.25 341.178 394.284 341.275 394.347L346.543 397.401C346.738 397.53 346.868 397.725 346.868 397.985V404.092C346.868 404.352 346.738 404.547 346.543 404.677L341.275 407.73C341.178 407.794 341.065 407.828 340.95 407.828C340.834 407.828 340.721 407.794 340.625 407.73L335.357 404.677C335.162 404.547 335.032 404.352 335.032 404.092V397.985C335.032 397.725 335.162 397.53 335.357 397.401L340.625 394.347V394.347Z" fill="#539E43"/>
<mask id="mask0" mask-type="alpha" maskUnits="userSpaceOnUse" x="159" y="366" width="62" height="71">
<path d="M191.891 366.671C191.386 366.384 190.815 366.232 190.233 366.232C189.652 366.232 189.08 366.384 188.575 366.671L161.196 382.457C160.155 383.042 159.57 384.146 159.57 385.316V416.956C159.57 418.125 160.22 419.23 161.196 419.814L188.575 435.602C189.08 435.889 189.652 436.04 190.233 436.04C190.815 436.04 191.386 435.889 191.891 435.602L219.271 419.814C220.312 419.23 220.897 418.125 220.897 416.956V385.316C220.897 384.147 220.246 383.042 219.271 382.458L191.891 366.671Z" fill="white"/>
</mask>
<g mask="url(#mask0)">
<path d="M191.891 366.671C191.386 366.384 190.815 366.232 190.233 366.232C189.652 366.232 189.08 366.384 188.575 366.671L161.196 382.457C160.155 383.042 159.57 384.146 159.57 385.316V416.956C159.57 418.125 160.22 419.23 161.196 419.814L188.575 435.602C189.08 435.889 189.652 436.04 190.233 436.04C190.815 436.04 191.386 435.889 191.891 435.602L219.271 419.814C220.312 419.23 220.897 418.125 220.897 416.956V385.316C220.897 384.147 220.246 383.042 219.271 382.458L191.891 366.671Z" fill="url(#paint0_linear)"/>
<path d="M219.336 382.458L191.827 366.671C191.556 366.535 191.273 366.426 190.981 366.346L160.155 419.101C160.41 419.412 160.719 419.676 161.066 419.881L188.575 435.668C189.355 436.123 190.266 436.253 191.111 435.993L220.052 383.108C219.856 382.849 219.596 382.653 219.336 382.459V382.458Z" fill="url(#paint1_linear)"/>
<path fill-rule="evenodd" clip-rule="evenodd" d="M219.401 419.815C220.182 419.36 220.767 418.58 221.027 417.736L190.851 366.281C190.07 366.151 189.224 366.216 188.51 366.67L161.195 382.393L190.655 436.057C191.084 435.987 191.5 435.856 191.891 435.667L219.401 419.815L219.401 419.815Z" fill="url(#paint2_linear)"/>
<path fill-rule="evenodd" clip-rule="evenodd" d="M219.401 419.815L191.957 435.603C191.569 435.8 191.152 435.932 190.721 435.992L191.242 436.967L221.677 419.361V418.971L220.897 417.671C220.767 418.581 220.182 419.361 219.401 419.815V419.815Z" fill="url(#paint3_linear)"/>
<path fill-rule="evenodd" clip-rule="evenodd" d="M219.401 419.815L191.957 435.603C191.569 435.8 191.152 435.932 190.721 435.992L191.242 436.967L221.677 419.361V418.971L220.897 417.671C220.767 418.581 220.182 419.361 219.401 419.815V419.815Z" fill="url(#paint4_linear)"/>
</g>
<path d="M267.512 561.676H255.372L268 575.444V581.992H241.983V574.324H254.612L241.983 560.556V554H267.521L267.512 561.676ZM236.818 561.676H224.661L237.306 575.444V581.992H211.281V574.324H223.909L211.281 560.556V554H236.818V561.676ZM206.421 561.992H193.322V574.008H206.421V582H184V554H206.421V561.992Z" fill="#131313"/>
<path d="M166.289 743.412L153 594H299L285.694 743.387L225.909 760L166.289 743.412Z" fill="#1572B6"/>
<path d="M226 748L274.577 734.577L286 607H226V748Z" fill="#33A9DC"/>
<path d="M226 661.467H250.274L251.945 642.508H226V624H272L271.562 628.969L267.053 680H226V661.467Z" fill="white"/>
<path d="M225.959 708.527H225.877L205.581 702.904L204.282 688H186L188.557 717.345L225.893 728H226V708.527H225.959Z" fill="#EBEBEB"/>
<path d="M248.631 678.008L246.426 702.962L226 708.572V728L263.539 717.403L263.812 714.249L267 678H248.631V678.008Z" fill="white"/>
<path d="M226 624V642.191H181.656L181.275 638.105L180.439 628.882L180 624H226ZM225.934 660.809V679H205.717L205.36 674.914L204.524 665.691L204.085 660.809H225.925H225.934Z" fill="#EBEBEB"/>
<path d="M543.775 647.243C543.775 667.042 563.05 685.525 593.437 695.944C587.369 726.586 592.351 751.285 608.987 760.908C626.086 770.8 651.561 763.953 675.741 742.752C699.31 763.096 723.13 771.103 739.752 761.452C756.836 751.532 762.031 725.159 755.795 693.56C787.446 683.064 805.151 667.303 805.151 647.243C805.151 627.902 785.841 611.171 755.862 600.819C762.575 567.915 756.887 543.816 739.562 533.795C722.859 524.133 698.761 532.554 674.846 553.431C649.965 531.272 626.106 524.507 608.799 534.556C592.111 544.245 587.35 569.393 593.437 600.602C564.075 610.87 543.775 627.981 543.775 647.243Z" fill="white"/>
<path d="M749.513 611.099C747.042 610.249 744.551 609.461 742.041 608.737C742.457 607.04 742.842 605.336 743.195 603.625C748.852 576.083 745.153 553.896 732.524 546.592C720.415 539.588 700.611 546.891 680.609 564.35C678.638 566.074 676.711 567.848 674.829 569.67C673.569 568.459 672.287 567.271 670.983 566.107C650.021 547.437 629.01 539.571 616.393 546.896C604.296 553.921 600.713 574.78 605.805 600.881C606.312 603.466 606.884 606.037 607.521 608.593C604.548 609.44 601.676 610.342 598.929 611.303C574.354 619.897 558.659 633.366 558.659 647.337C558.659 661.767 575.507 676.241 601.105 685.016C603.181 685.724 605.274 686.38 607.382 686.984C606.697 689.737 606.089 692.509 605.558 695.297C600.703 720.944 604.495 741.309 616.561 748.29C629.023 755.498 649.939 748.089 670.306 730.231C671.916 728.82 673.532 727.322 675.15 725.753C677.188 727.725 679.28 729.64 681.425 731.496C701.153 748.524 720.637 755.4 732.692 748.4C745.143 741.17 749.189 719.293 743.935 692.676C743.534 690.643 743.067 688.567 742.543 686.452C744.012 686.017 745.453 685.568 746.86 685.1C773.471 676.257 790.784 661.96 790.784 647.337C790.784 633.316 774.583 619.755 749.513 611.099V611.099Z" fill="#53C1DE"/>
<path d="M743.741 675.66C742.472 676.081 741.169 676.488 739.842 676.883C736.904 667.554 732.939 657.634 728.088 647.387C732.718 637.381 736.529 627.589 739.385 618.32C741.759 619.011 744.064 619.737 746.285 620.505C767.766 627.921 780.868 638.888 780.868 647.337C780.868 656.338 766.717 668.023 743.742 675.66H743.741ZM734.207 694.608C736.53 706.378 736.862 717.019 735.323 725.338C733.94 732.813 731.16 737.796 727.723 739.792C720.408 744.039 704.763 738.518 687.893 723.956C685.958 722.287 684.009 720.504 682.055 718.619C688.596 711.443 695.133 703.1 701.512 693.837C712.735 692.838 723.336 691.205 732.951 688.976C733.423 690.893 733.845 692.771 734.207 694.608V694.608ZM637.795 739.058C630.648 741.59 624.956 741.662 621.516 739.672C614.193 735.437 611.15 719.084 615.301 697.151C615.795 694.559 616.36 691.982 616.996 689.421C626.504 691.53 637.029 693.048 648.278 693.963C654.699 703.028 661.425 711.36 668.203 718.657C666.763 720.054 665.288 721.416 663.781 722.741C654.774 730.639 645.75 736.24 637.796 739.058H637.795ZM604.312 675.604C592.994 671.723 583.646 666.68 577.239 661.178C571.482 656.232 568.575 651.322 568.575 647.337C568.575 638.86 581.177 628.045 602.194 620.695C604.832 619.777 607.496 618.936 610.183 618.174C613.089 627.651 616.899 637.559 621.497 647.579C616.839 657.749 612.975 667.815 610.043 677.403C608.118 676.851 606.207 676.251 604.312 675.604V675.604ZM615.537 598.971C611.174 576.607 614.071 559.738 621.361 555.505C629.128 550.996 646.299 557.426 664.398 573.545C665.555 574.575 666.717 575.654 667.881 576.77C661.137 584.033 654.473 592.303 648.107 601.315C637.19 602.33 626.739 603.96 617.132 606.143C616.54 603.766 616.008 601.374 615.537 598.97V598.971ZM715.665 623.77C713.395 619.838 711.042 615.956 708.606 612.126C716.013 613.064 723.108 614.311 729.771 615.837C727.771 622.268 725.278 628.992 722.342 635.886C720.197 631.803 717.971 627.764 715.665 623.77V623.77ZM674.832 583.878C679.406 588.848 683.987 594.398 688.492 600.418C679.353 599.985 670.197 599.983 661.057 600.412C665.567 594.447 670.187 588.905 674.832 583.878V583.878ZM633.738 623.838C631.461 627.8 629.277 631.815 627.186 635.879C624.299 629.009 621.828 622.254 619.81 615.732C626.433 614.245 633.496 613.03 640.854 612.108C638.391 615.961 636.019 619.873 633.738 623.838V623.838ZM641.066 683.277C633.464 682.426 626.295 681.272 619.674 679.827C621.723 673.189 624.248 666.289 627.198 659.272C629.297 663.339 631.491 667.356 633.778 671.32C636.113 675.363 638.542 679.35 641.066 683.277V683.277ZM675.107 711.499C670.407 706.412 665.719 700.786 661.141 694.734C665.585 694.909 670.116 694.998 674.721 694.998C679.453 694.998 684.131 694.892 688.734 694.686C684.214 700.848 679.649 706.482 675.107 711.499ZM722.437 658.914C725.539 666.008 728.154 672.87 730.232 679.396C723.501 680.937 716.235 682.177 708.578 683.098C711.032 679.197 713.408 675.247 715.705 671.25C718.04 667.189 720.284 663.076 722.437 658.914V658.914ZM707.114 666.282C703.598 672.409 699.884 678.419 695.978 684.304C689.091 684.798 681.974 685.052 674.721 685.052C667.499 685.052 660.472 684.826 653.705 684.386C649.698 678.515 645.914 672.494 642.36 666.336C638.824 660.211 635.52 653.953 632.457 647.576C635.513 641.197 638.806 634.936 642.331 628.806V628.808C645.854 622.676 649.609 616.681 653.586 610.835C660.489 610.312 667.567 610.037 674.723 610.037C681.91 610.037 688.997 610.314 695.898 610.841C699.835 616.678 703.566 622.652 707.082 628.753C710.619 634.87 713.957 641.101 717.089 647.435C713.989 653.834 710.662 660.12 707.115 666.282H707.114ZM727.571 555.209C735.344 559.706 738.367 577.838 733.483 601.618C733.163 603.167 732.815 604.71 732.439 606.247C722.809 604.018 712.352 602.359 701.403 601.328C695.024 592.218 688.415 583.935 681.781 576.765C683.52 575.084 685.299 573.446 687.119 571.854C704.256 556.894 720.273 550.987 727.571 555.209V555.209Z" fill="white"/>
<path d="M674.722 626.546C686.17 626.546 695.449 635.855 695.449 647.337C695.449 658.82 686.17 668.129 674.722 668.129C663.274 668.129 653.994 658.82 653.994 647.337C653.994 635.855 663.274 626.546 674.722 626.546" fill="#53C1DE"/>
<path d="M1113.5 541C1054.68 541 1007 588.678 1007 647.5C1007 706.322 1054.68 754 1113.5 754C1172.32 754 1220 706.322 1220 647.5C1220 588.678 1172.32 541 1113.5 541ZM1029.88 648.608L1112.39 731.115C1067.08 730.527 1030.47 693.917 1029.88 648.608ZM1132.22 729.028L1031.97 628.782C1040.48 591.609 1073.75 563.868 1113.5 563.868C1141.28 563.868 1165.91 577.423 1181.11 598.28L1169.54 608.495C1157.2 590.808 1136.7 579.229 1113.5 579.229C1083.96 579.229 1058.8 597.99 1049.29 624.249L1136.75 711.698C1157.99 704.005 1174.32 686.079 1179.79 663.875H1143.55V647.5H1197.14C1197.13 687.254 1169.39 720.525 1132.22 729.028Z" fill="#744C9E"/>
<path d="M573 68H775V270H573V68Z" fill="#F7DF1E"/>
<path d="M625.001 237.154L640.459 227.799C643.441 233.086 646.154 237.56 652.661 237.56C658.899 237.56 662.832 235.12 662.832 225.629V161.086H681.815V225.898C681.815 245.559 670.29 254.508 653.475 254.508C638.289 254.508 629.475 246.644 625 237.152L625.001 237.154ZM692.126 235.12L707.582 226.171C711.651 232.815 716.939 237.697 726.294 237.697C734.16 237.697 739.176 233.764 739.176 228.34C739.176 221.832 734.023 219.526 725.345 215.731L720.6 213.695C706.905 207.866 697.82 200.544 697.82 185.086C697.82 170.848 708.667 160 725.617 160C737.685 160 746.363 164.204 752.6 175.187L737.819 184.68C734.564 178.849 731.041 176.544 725.617 176.544C720.057 176.544 716.531 180.07 716.531 184.68C716.531 190.374 720.057 192.681 728.192 196.206L732.937 198.24C749.074 205.156 758.158 212.206 758.158 228.069C758.158 245.156 744.735 254.511 726.701 254.511C709.074 254.511 697.684 246.104 692.125 235.12" fill="black"/>
<path fill-rule="evenodd" clip-rule="evenodd" d="M201.071 177.663C201.071 177.663 195.339 180.998 205.155 182.125C217.051 183.483 223.127 183.288 236.231 180.809C236.231 180.809 239.681 182.969 244.497 184.838C215.112 197.43 177.993 184.11 201.071 177.663ZM197.479 161.231C197.479 161.231 191.048 165.991 200.873 167.007C213.58 168.319 223.611 168.426 240.979 165.085C240.979 165.085 243.377 167.519 247.151 168.848C211.627 179.239 172.063 169.666 197.479 161.231Z" fill="#3174B9"/>
<path fill-rule="evenodd" clip-rule="evenodd" d="M227.747 133.354C234.991 141.693 225.848 149.192 225.848 149.192C225.848 149.192 244.234 139.703 235.789 127.816C227.905 116.736 221.858 111.231 254.593 92.2485C254.592 92.2473 203.208 105.077 227.747 133.354Z" fill="#CA3132"/>
<path fill-rule="evenodd" clip-rule="evenodd" d="M266.61 189.817C266.61 189.817 270.854 193.316 261.936 196.021C244.979 201.157 191.347 202.706 176.449 196.226C171.098 193.895 181.138 190.664 184.297 189.981C187.592 189.269 189.472 189.399 189.472 189.399C183.516 185.205 150.978 197.635 172.947 201.201C232.851 210.914 282.147 196.828 266.61 189.817ZM203.829 144.204C203.829 144.204 176.551 150.685 194.171 153.041C201.613 154.035 216.437 153.806 230.256 152.647C241.547 151.7 252.879 149.673 252.879 149.673C252.879 149.673 248.901 151.38 246.019 153.344C218.314 160.632 164.803 157.238 180.209 149.788C193.236 143.487 203.829 144.204 203.829 144.204V144.204ZM252.766 171.555C280.927 156.925 267.907 142.863 258.816 144.758C256.594 145.223 255.596 145.624 255.596 145.624C255.596 145.624 256.426 144.326 258.002 143.768C275.982 137.449 289.808 162.41 252.205 172.295C252.203 172.295 252.637 171.904 252.766 171.555V171.555Z" fill="#3174B9"/>
<path fill-rule="evenodd" clip-rule="evenodd" d="M235.789 61.5884C235.789 61.5884 251.382 77.1907 220.996 101.175C196.628 120.422 215.441 131.392 220.989 143.932C206.762 131.098 196.327 119.799 203.327 109.286C213.604 93.8526 242.081 86.3683 235.789 61.5884V61.5884Z" fill="#CA3132"/>
<path fill-rule="evenodd" clip-rule="evenodd" d="M206.599 211.212C233.625 212.94 275.136 210.252 276.12 197.461C276.12 197.461 274.23 202.309 253.782 206.155C230.712 210.498 202.253 209.993 185.379 207.208C185.379 207.208 188.837 210.069 206.599 211.212V211.212Z" fill="#3174B9"/>
<path fill-rule="evenodd" clip-rule="evenodd" d="M274.872 234.149H274.05V233.688H276.267V234.149H275.446V236.45H274.872V234.149ZM279.297 234.263H279.287L278.47 236.449H278.095L277.283 234.263H277.273V236.449H276.728V233.687H277.529L278.281 235.641L279.033 233.687H279.826V236.449H279.298V234.263H279.297V234.263ZM202.17 260.078C199.622 262.287 196.927 263.529 194.508 263.529C191.062 263.529 189.192 261.459 189.192 258.146C189.192 254.559 191.194 251.934 199.207 251.934H202.169V260.078H202.17V260.078ZM209.205 268.014V243.446C209.205 237.167 205.624 233.023 196.992 233.023C191.956 233.023 187.541 234.267 183.951 235.852L184.984 240.204C187.812 239.165 191.468 238.203 195.056 238.203C200.029 238.203 202.169 240.204 202.169 244.346V247.453H199.684C187.604 247.453 182.153 252.139 182.153 259.185C182.153 265.256 185.745 268.708 192.507 268.708C196.854 268.708 200.101 266.914 203.133 264.288L203.684 268.014H209.205V268.014ZM232.684 268.014H223.912L213.35 233.648H221.012L227.568 254.767L229.027 261.112C232.334 251.934 234.681 242.617 235.855 233.648H243.306C241.311 244.964 237.718 257.387 232.684 268.014V268.014ZM266.348 260.078C263.792 262.287 261.097 263.529 258.683 263.529C255.236 263.529 253.369 261.459 253.369 258.146C253.369 254.559 255.372 251.934 263.381 251.934H266.348V260.078V260.078ZM273.385 268.014V243.446C273.385 237.167 269.793 233.023 261.169 233.023C256.128 233.023 251.714 234.267 248.124 235.852L249.158 240.204C251.985 239.165 255.649 238.203 259.238 238.203C264.204 238.203 266.346 240.204 266.346 244.346V247.453H263.861C251.78 247.453 246.333 252.139 246.333 259.185C246.333 265.256 249.917 268.708 256.681 268.708C261.031 268.708 264.273 266.914 267.313 264.288L267.867 268.014H273.385V268.014ZM174.44 273.854C172.435 276.784 169.193 279.103 165.648 280.412L162.174 276.32C164.875 274.935 167.188 272.697 168.265 270.615C169.193 268.76 169.58 266.375 169.58 260.665V221.425H177.057V260.123C177.057 267.76 176.447 270.847 174.44 273.854V273.854Z" fill="#CA3132"/>
<rect x="21.5" y="16.5" width="1279" height="799" rx="19.5" stroke="white"/>
</g>
<defs>
<filter id="filter0_d" x="0" y="0" width="1320" height="840" filterUnits="userSpaceOnUse" color-interpolation-filters="sRGB">
<feFlood flood-opacity="0" result="BackgroundImageFix"/>
<feColorMatrix in="SourceAlpha" type="matrix" values="0 0 0 0 0 0 0 0 0 0 0 0 0 0 0 0 0 0 127 0"/>
<feMorphology radius="10" operator="dilate" in="SourceAlpha" result="effect1_dropShadow"/>
<feOffset dx="-1" dy="4"/>
<feGaussianBlur stdDeviation="5"/>
<feColorMatrix type="matrix" values="0 0 0 0 0 0 0 0 0 0 0 0 0 0 0 0 0 0 0.25 0"/>
<feBlend mode="normal" in2="BackgroundImageFix" result="effect1_dropShadow"/>
<feBlend mode="normal" in="SourceGraphic" in2="effect1_dropShadow" result="shape"/>
</filter>
<linearGradient id="paint0_linear" x1="201.388" y1="378.44" x2="171.421" y2="425.574" gradientUnits="userSpaceOnUse">
<stop stop-color="#41873F"/>
<stop offset="0.3288" stop-color="#418B3D"/>
<stop offset="0.6352" stop-color="#419637"/>
<stop offset="0.9319" stop-color="#3FA92D"/>
<stop offset="1" stop-color="#3FAE2A"/>
</linearGradient>
<linearGradient id="paint1_linear" x1="186.076" y1="404.843" x2="261.201" y2="363.986" gradientUnits="userSpaceOnUse">
<stop offset="0.1376" stop-color="#41873F"/>
<stop offset="0.4032" stop-color="#54A044"/>
<stop offset="0.7136" stop-color="#66B848"/>
<stop offset="0.9081" stop-color="#6CC04A"/>
</linearGradient>
<linearGradient id="paint2_linear" x1="158.569" y1="401.137" x2="221.924" y2="401.137" gradientUnits="userSpaceOnUse">
<stop offset="0.09192" stop-color="#6CC04A"/>
<stop offset="0.2864" stop-color="#66B848"/>
<stop offset="0.5968" stop-color="#54A044"/>
<stop offset="0.8624" stop-color="#41873F"/>
</linearGradient>
<linearGradient id="paint3_linear" x1="158.57" y1="427.372" x2="221.924" y2="427.372" gradientUnits="userSpaceOnUse">
<stop offset="0.09192" stop-color="#6CC04A"/>
<stop offset="0.2864" stop-color="#66B848"/>
<stop offset="0.5968" stop-color="#54A044"/>
<stop offset="0.8624" stop-color="#41873F"/>
</linearGradient>
<linearGradient id="paint4_linear" x1="231.154" y1="376.944" x2="215.135" y2="460.968" gradientUnits="userSpaceOnUse">
<stop stop-color="#41873F"/>
<stop offset="0.3288" stop-color="#418B3D"/>
<stop offset="0.6352" stop-color="#419637"/>
<stop offset="0.9319" stop-color="#3FA92D"/>
<stop offset="1" stop-color="#3FAE2A"/>
</linearGradient>
</defs>
</svg>
