<svg width="406" height="302" viewBox="0 0 406 302" fill="none" xmlns="http://www.w3.org/2000/svg">
<ellipse id="Ellipse 3" cx="202.5" cy="106" rx="103.5" ry="106" fill="black"/>
<ellipse id="Ellipse 4" cx="104" cy="206.5" rx="104" ry="95.5" fill="#292727"/>
<ellipse id="Ellipse 1" cx="202" cy="106" rx="98" ry="100" fill="#FF5C00"/>
<ellipse id="Ellipse 7" cx="202" cy="106" rx="98" ry="100" fill="#FF5C00"/>
<ellipse id="Ellipse 6" cx="201.5" cy="106.5" rx="75.5" ry="72.5" fill="#1D1D1D"/>
<ellipse id="Ellipse 2" rx="173" ry="4" transform="matrix(1 0 0 -1 233 157)" fill="white"/>
<path id="Polygon 1" d="M74.5 246L87.0574 267.75H61.9426L74.5 246Z" fill="#FF5C00"/>
<path id="Polygon 2" d="M89.4984 254.215L77.2695 232.278L102.381 232.656L89.4984 254.215Z" fill="#FF5C00"/>
<path id="Polygon 4" d="M201.494 156.492L223.658 144.682L222.804 169.782L201.494 156.492Z" fill="#FF5C00"/>
<path id="Polygon 5" d="M167.494 156.492L189.658 144.682L188.804 169.782L167.494 156.492Z" fill="#FF5C00"/>
<path id="Polygon 3" d="M89.4984 225.215L77.2695 203.278L102.381 203.656L89.4984 225.215Z" fill="#FF5C00"/>
</svg>
